<mxfile host="app.diagrams.net" agent="Mozilla/5.0 (X11; CrOS x86_64 14541.0.0) AppleWebKit/537.36 (KHTML, like Gecko) Chrome/132.0.0.0 Safari/537.36" version="26.0.9">
  <diagram name="Page-1" id="3CLQeADzJYF1_5fJzHQe">
    <mxGraphModel dx="1434" dy="738" grid="1" gridSize="10" guides="1" tooltips="1" connect="1" arrows="1" fold="1" page="1" pageScale="1" pageWidth="850" pageHeight="1100" math="0" shadow="0">
      <root>
        <mxCell id="0" />
        <mxCell id="1" parent="0" />
        <mxCell id="7-0MGVSKGYvinGtFvDf9-9" style="edgeStyle=orthogonalEdgeStyle;rounded=0;orthogonalLoop=1;jettySize=auto;html=1;exitX=0.25;exitY=1;exitDx=0;exitDy=0;entryX=0.5;entryY=0;entryDx=0;entryDy=0;" edge="1" parent="1" source="7-0MGVSKGYvinGtFvDf9-1" target="7-0MGVSKGYvinGtFvDf9-2">
          <mxGeometry relative="1" as="geometry" />
        </mxCell>
        <mxCell id="7-0MGVSKGYvinGtFvDf9-10" style="edgeStyle=orthogonalEdgeStyle;rounded=0;orthogonalLoop=1;jettySize=auto;html=1;exitX=0.5;exitY=1;exitDx=0;exitDy=0;entryX=0.5;entryY=0;entryDx=0;entryDy=0;" edge="1" parent="1" source="7-0MGVSKGYvinGtFvDf9-1" target="7-0MGVSKGYvinGtFvDf9-3">
          <mxGeometry relative="1" as="geometry" />
        </mxCell>
        <mxCell id="7-0MGVSKGYvinGtFvDf9-11" style="edgeStyle=orthogonalEdgeStyle;rounded=0;orthogonalLoop=1;jettySize=auto;html=1;exitX=0.75;exitY=1;exitDx=0;exitDy=0;entryX=0.5;entryY=0;entryDx=0;entryDy=0;" edge="1" parent="1" source="7-0MGVSKGYvinGtFvDf9-1" target="7-0MGVSKGYvinGtFvDf9-4">
          <mxGeometry relative="1" as="geometry" />
        </mxCell>
        <mxCell id="7-0MGVSKGYvinGtFvDf9-1" value="Our new Python API" style="rounded=1;whiteSpace=wrap;html=1;" vertex="1" parent="1">
          <mxGeometry x="330" y="70" width="120" height="60" as="geometry" />
        </mxCell>
        <mxCell id="7-0MGVSKGYvinGtFvDf9-16" style="edgeStyle=orthogonalEdgeStyle;rounded=0;orthogonalLoop=1;jettySize=auto;html=1;exitX=0.5;exitY=1;exitDx=0;exitDy=0;entryX=0.5;entryY=0;entryDx=0;entryDy=0;" edge="1" parent="1" source="7-0MGVSKGYvinGtFvDf9-2" target="7-0MGVSKGYvinGtFvDf9-5">
          <mxGeometry relative="1" as="geometry" />
        </mxCell>
        <mxCell id="7-0MGVSKGYvinGtFvDf9-2" value="Pulumi AWS API calls" style="rounded=1;whiteSpace=wrap;html=1;" vertex="1" parent="1">
          <mxGeometry x="170" y="230" width="120" height="60" as="geometry" />
        </mxCell>
        <mxCell id="7-0MGVSKGYvinGtFvDf9-17" style="edgeStyle=orthogonalEdgeStyle;rounded=0;orthogonalLoop=1;jettySize=auto;html=1;exitX=0.5;exitY=1;exitDx=0;exitDy=0;" edge="1" parent="1" source="7-0MGVSKGYvinGtFvDf9-3" target="7-0MGVSKGYvinGtFvDf9-6">
          <mxGeometry relative="1" as="geometry" />
        </mxCell>
        <mxCell id="7-0MGVSKGYvinGtFvDf9-3" value="Pulumi GCloud API calls" style="rounded=1;whiteSpace=wrap;html=1;" vertex="1" parent="1">
          <mxGeometry x="330" y="230" width="120" height="60" as="geometry" />
        </mxCell>
        <mxCell id="7-0MGVSKGYvinGtFvDf9-18" style="edgeStyle=orthogonalEdgeStyle;rounded=0;orthogonalLoop=1;jettySize=auto;html=1;exitX=0.5;exitY=1;exitDx=0;exitDy=0;entryX=0.5;entryY=0;entryDx=0;entryDy=0;" edge="1" parent="1" source="7-0MGVSKGYvinGtFvDf9-4" target="7-0MGVSKGYvinGtFvDf9-7">
          <mxGeometry relative="1" as="geometry" />
        </mxCell>
        <mxCell id="7-0MGVSKGYvinGtFvDf9-4" value="Pulumi Azure API calls" style="rounded=1;whiteSpace=wrap;html=1;" vertex="1" parent="1">
          <mxGeometry x="490" y="230" width="120" height="60" as="geometry" />
        </mxCell>
        <mxCell id="7-0MGVSKGYvinGtFvDf9-5" value="AWS" style="rounded=1;whiteSpace=wrap;html=1;" vertex="1" parent="1">
          <mxGeometry x="170" y="380" width="120" height="60" as="geometry" />
        </mxCell>
        <mxCell id="7-0MGVSKGYvinGtFvDf9-6" value="Google Cloud" style="rounded=1;whiteSpace=wrap;html=1;" vertex="1" parent="1">
          <mxGeometry x="330" y="380" width="120" height="60" as="geometry" />
        </mxCell>
        <mxCell id="7-0MGVSKGYvinGtFvDf9-7" value="Azure" style="rounded=1;whiteSpace=wrap;html=1;" vertex="1" parent="1">
          <mxGeometry x="490" y="380" width="120" height="60" as="geometry" />
        </mxCell>
        <mxCell id="7-0MGVSKGYvinGtFvDf9-13" value="Translation from our proprietary&amp;nbsp;&lt;div&gt;cloud-agnostic DSL into the appropriate&lt;/div&gt;&lt;div style=&quot;&quot;&gt;Pulumi Python API calls for the selected stack&lt;/div&gt;" style="text;html=1;align=left;verticalAlign=middle;resizable=0;points=[];autosize=1;strokeColor=none;fillColor=none;rotation=0;" vertex="1" parent="1">
          <mxGeometry x="500" y="100" width="270" height="60" as="geometry" />
        </mxCell>
        <mxCell id="7-0MGVSKGYvinGtFvDf9-19" value="Text" style="text;html=1;align=center;verticalAlign=middle;whiteSpace=wrap;rounded=0;" vertex="1" parent="1">
          <mxGeometry x="380" y="180" width="60" height="30" as="geometry" />
        </mxCell>
        <mxCell id="7-0MGVSKGYvinGtFvDf9-20" value="Deployment step done via Pulumi&#39;s existing&lt;div&gt;deployment API calls (prerequisite is setting&amp;nbsp;&lt;/div&gt;&lt;div&gt;cloud-specific config parameters like AWS&amp;nbsp;&lt;/div&gt;&lt;div&gt;API key etc., which could also be a pass-thru&lt;/div&gt;&lt;div&gt;from our own API)&lt;/div&gt;" style="text;html=1;align=left;verticalAlign=middle;resizable=0;points=[];autosize=1;strokeColor=none;fillColor=none;" vertex="1" parent="1">
          <mxGeometry x="620" y="290" width="260" height="90" as="geometry" />
        </mxCell>
      </root>
    </mxGraphModel>
  </diagram>
</mxfile>
